<svg width="33" height="32" viewBox="0 0 33 32" fill="none" xmlns="http://www.w3.org/2000/svg">
<path d="M16.333 30.0001C15.9552 30.0002 15.5841 29.9009 15.257 29.7121L11.833 27.6851C11.322 27.3991 11.571 27.2981 11.74 27.2391C12.2835 27.0712 12.8038 26.836 13.289 26.5391C13.3296 26.5203 13.3743 26.5122 13.4189 26.5155C13.4636 26.5188 13.5066 26.5335 13.544 26.5581L16.175 28.1211C16.224 28.147 16.2786 28.1606 16.334 28.1606C16.3894 28.1606 16.444 28.147 16.493 28.1211L26.753 22.1991C26.801 22.1703 26.8407 22.1296 26.8682 22.0809C26.8957 22.0321 26.9101 21.9771 26.91 21.9211V10.0751C26.91 10.0182 26.8954 9.96234 26.8675 9.91277C26.8397 9.8632 26.7996 9.82164 26.751 9.7921L16.491 3.8751C16.4426 3.84785 16.388 3.83354 16.3325 3.83354C16.2769 3.83354 16.2224 3.84785 16.174 3.8751L5.91998 9.7941C5.87106 9.82303 5.83045 9.86409 5.80207 9.91332C5.77369 9.96255 5.7585 10.0183 5.75798 10.0751V21.9161C5.75812 21.9719 5.7731 22.0267 5.80139 22.0749C5.82968 22.123 5.87026 22.1628 5.91898 22.1901L8.73298 23.8141C10.258 24.5761 11.192 23.6781 11.192 22.7761V11.0851C11.192 11.0055 11.2236 10.9292 11.2798 10.873C11.3361 10.8167 11.4124 10.7851 11.492 10.7851H12.792C12.8715 10.7851 12.9478 10.8167 13.0041 10.873C13.0604 10.9292 13.092 11.0055 13.092 11.0851V22.7771C13.092 24.8121 11.984 25.9771 10.054 25.9771C9.22135 25.9916 8.40179 25.7689 7.69098 25.3351L4.99398 23.7881C4.66656 23.5974 4.39489 23.3242 4.20608 22.9957C4.01727 22.6672 3.91793 22.295 3.91798 21.9161V10.0751C3.917 9.69563 4.01592 9.32259 4.2048 8.99346C4.39368 8.66433 4.66585 8.39071 4.99398 8.2001L15.255 2.2761C15.5855 2.09527 15.9562 2.00049 16.333 2.00049C16.7097 2.00049 17.0804 2.09527 17.411 2.2761L27.671 8.2001C27.9983 8.39039 28.2701 8.66322 28.4591 8.99135C28.6481 9.31948 28.7477 9.69144 28.748 10.0701V21.9161C28.7474 22.295 28.6477 22.6671 28.4588 22.9955C28.2698 23.3239 27.9982 23.5972 27.671 23.7881L17.411 29.7121C17.0832 29.9012 16.7114 30.0005 16.333 30.0001V30.0001Z" fill="#83CD29"/>
<path d="M14.3872 17.9531C14.3872 17.8736 14.4188 17.7972 14.4751 17.741C14.5313 17.6847 14.6076 17.6531 14.6872 17.6531H16.0142C16.0851 17.6533 16.1536 17.6787 16.2076 17.7246C16.2616 17.7706 16.2976 17.8342 16.3092 17.9041C16.5092 19.2551 17.1092 19.9361 19.8222 19.9361C21.9832 19.9361 22.9042 19.4471 22.9042 18.3001C22.9042 17.6391 22.6432 17.1481 19.2842 16.8191C16.4762 16.5411 14.7402 15.9191 14.7402 13.6751C14.7402 11.6051 16.4852 10.3701 19.4102 10.3701C22.6972 10.3701 24.3242 11.5111 24.5302 13.9591C24.5334 14 24.5281 14.0411 24.5147 14.0798C24.5014 14.1186 24.4803 14.1542 24.4526 14.1845C24.425 14.2147 24.3914 14.239 24.354 14.2558C24.3166 14.2726 24.2762 14.2816 24.2352 14.2821H22.8992C22.8322 14.2812 22.7674 14.2578 22.7152 14.2158C22.663 14.1737 22.6264 14.1154 22.6112 14.0501C22.2922 12.6291 21.5112 12.1751 19.4112 12.1751C17.0512 12.1751 16.7772 12.9971 16.7772 13.6131C16.7772 14.3591 17.1012 14.5771 20.2872 14.9981C23.4402 15.4151 24.9382 16.0051 24.9382 18.2211C24.9382 20.4571 23.0742 21.7371 19.8232 21.7371C15.3282 21.7431 14.3872 19.6821 14.3872 17.9531V17.9531Z" fill="#83CD29"/>
</svg>
